<svg id="Layer_1" data-name="Layer 1" xmlns="http://www.w3.org/2000/svg" viewBox="0 0 324.98 273.94"><defs><style>.cls-1{fill:#fff;}</style></defs><path class="cls-1" d="M162.66,0q70.86,0,141.73,0a20.17,20.17,0,0,1,19.52,13.88c2.76,8.37.14,18-7.51,22.62a29,29,0,0,1-14.23,4.06c-48.34.29-96.7.18-145,.18q-67.53,0-135.07,0c-10.5,0-18.69-5.88-21.2-15A20.17,20.17,0,0,1,20.46,0Q76.35-.06,132.22,0Z"/><path class="cls-1" d="M162.51,142.13q-69.66,0-139.33,0c-12.54,0-20.33-5.77-22.69-16.6-2.31-10.59,5.35-22,16-23.66a44.47,44.47,0,0,1,7.11-.46q138.86,0,277.72,0c13,0,20.77,5.61,23.16,16.6,2.3,10.59-5.34,22-16,23.66a51.61,51.61,0,0,1-8.06.46Q231.46,142.15,162.51,142.13Z"/><path class="cls-1" d="M91.14,243.5q-34.69,0-69.39,0C9.25,243.49,0,234.86,0,223.25s9.36-20.46,21.68-20.48q69.87-.08,139.74,0c12.37,0,21.51,9,21.38,20.64s-9.09,20.06-21.31,20.08Q126.31,243.53,91.14,243.5Z"/><path class="cls-1" d="M213.07,223.12c0-12.83,0-25.66,0-38.48,0-10.39,7.27-15,16.49-10.37q38.61,19.24,77.16,38.6c4.3,2.15,7.85,4.85,7.94,10.23.08,5.12-2.88,8-7.18,10.15q-36.06,17.92-72.06,36c-2.26,1.13-4.49,2.34-6.78,3.4-8,3.7-15.43-.77-15.54-9.61C213,249.72,213.07,236.42,213.07,223.12Z"/></svg>