<svg id="Layer_1" data-name="Layer 1" xmlns="http://www.w3.org/2000/svg" viewBox="0 0 359.06 207.45"><defs><style>.cls-1{fill:#fff;}</style></defs><path class="cls-1" d="M0,207.45V0H359.06V207.45ZM71,103.7c0,7.23,0,14.47,0,21.7a23.23,23.23,0,0,0,8.91,18.93c5.24,4.31,11.31,7.1,18.06,7.28,14.71.39,29.44.4,44.16.3,2,0,4.88-1,5.8-2.56a11,11,0,0,0,1.26-7.57c-.72-3.1-3.59-4.52-7-4.51-13,0-26,.19-38.93-.11a31.92,31.92,0,0,1-11.15-2.49c-4.17-1.7-6.35-5-6.26-10,.25-13.47.09-26.94.09-40.42,0-7.65,3.12-11.67,10.67-13.31a38.41,38.41,0,0,1,7.79-.78c12.6-.07,25.2,0,37.81-.06,5.77,0,9.33-5.28,7.09-10.3-1.59-3.58-4.72-4.46-8.34-4.45-12.6,0-25.2-.06-37.8.07a46.67,46.67,0,0,0-10,1.14C78.62,59.92,71,69.65,71,84.61Zm138.18.12c0,5.49-.1,11,0,16.46.1,4.09-.09,8.32.91,12.23,2.61,10.2,13.58,18.59,25.63,19.06,14.81.58,29.66.45,44.5.32a10.09,10.09,0,0,0,6.11-2.86c2.12-2,2.28-4.92.89-7.63a7.24,7.24,0,0,0-7-4.13c-13,0-26,.19-38.91-.11a32.63,32.63,0,0,1-11.15-2.47c-4.38-1.75-6.48-5.31-6.41-10.36.19-13.83.16-27.68,0-41.52-.05-4.54,1.7-8,5.65-9.65a35.67,35.67,0,0,1,12.16-2.92c12.83-.36,25.68-.1,38.53-.15,4.61,0,7.85-3.07,7.93-7.21a7.2,7.2,0,0,0-7.35-7.4c-15.33,0-30.71-.54-46,.48C218.81,57,209.19,68.51,209.19,84.37Z"/></svg>