<svg id="Layer_1" data-name="Layer 1" xmlns="http://www.w3.org/2000/svg" viewBox="0 0 332.64 190.41"><defs><style>.cls-1{fill:#fff;}</style></defs><path class="cls-1" d="M167.41,133.51c1.39-2.08,2.35-4.19,3.89-5.74Q230.79,68.05,290.35,8.41c7.33-7.36,15.79-10.31,25.77-7.16,15.9,5,21.67,24.5,11.31,37.58a53.29,53.29,0,0,1-4.19,4.45Q254.39,112.15,185.54,181c-12.56,12.55-25.8,12.57-38.37,0Q77.92,111.78,8.66,42.55C1.31,35.23-1.86,26.83,1.1,16.82,6,.14,26.64-5.54,39.69,6.22c6.61,6,12.69,12.48,19,18.78l103.4,103.54C163.34,129.82,164.71,131,167.41,133.51Z"/></svg>