<svg id="Layer_1" data-name="Layer 1" xmlns="http://www.w3.org/2000/svg" viewBox="0 0 288.33 343.25"><defs><style>.cls-1{fill:#fff;}</style></defs><path class="cls-1" d="M130,225.76V15.28C130,5.92,136-.25,144.66,0A13.92,13.92,0,0,1,158.12,12.9c.11,1.4,0,2.82,0,4.23V225.76c1.49-1.39,2.47-2.26,3.4-3.18q36.81-36.79,73.6-73.61c4.45-4.47,9.47-6.5,15.61-4.52a14,14,0,0,1,6.44,22.16,41.22,41.22,0,0,1-3.16,3.32l-99.27,99.32c-6.37,6.38-14.78,6.61-20.94.45Q83.2,219.06,32.59,168.37c-5.94-5.94-6.47-13.83-1.48-19.65,5.58-6.52,14.75-6.77,21.16-.42q18.3,18.13,36.46,36.39l37.93,37.92C127.54,223.49,128.48,224.32,130,225.76Z"/><path class="cls-1" d="M144.13,343.24q-63.87,0-127.72,0a23.54,23.54,0,0,1-7.27-.87C2.92,340.27-.49,334.5.06,327.67a13.59,13.59,0,0,1,11-12.11,27.14,27.14,0,0,1,5.25-.49q127.71,0,255.42,0c5.43,0,10.29,1.16,13.69,5.79a13.41,13.41,0,0,1,1.46,14.31c-2.28,5-6.32,7.87-11.9,8-6,.16-12,.09-18,.09Z"/></svg>