<svg id="Layer_1" data-name="Layer 1" xmlns="http://www.w3.org/2000/svg" viewBox="0 0 319.98 319.9"><defs><style>.cls-1{fill:#fff;}</style></defs><path class="cls-1" d="M319.63,66.31c0,10.48.28,21-.1,31.43-.26,7.13-6,12.89-12.86,14.14s-14-2-16.9-8.32a24.62,24.62,0,0,1-1.94-9.74c-.19-17.22-.08-34.44-.1-51.66,0-9.64-.28-9.91-9.79-9.92-17.6,0-35.19.07-52.79,0-10.63-.06-17.52-7-17.2-16.9A15.68,15.68,0,0,1,221.33.49a66.22,66.22,0,0,1,7.85-.31C247,.1,264.87.12,282.72,0,303.08-.13,320.24,17.13,320,37.49c-.12,9.61,0,19.21,0,28.82Z"/><path class="cls-1" d="M319.59,253.58c0,11.09.66,22.24-.15,33.27-1.37,18.57-17.62,33-36.34,33-19.21.05-38.43-.06-57.65-.15-8.8,0-14.6-4.05-16.87-11.46-2.88-9.38,3.45-19.44,13.2-20.27,6.57-.56,13.22-.3,19.83-.32,12.36,0,24.71,0,37.07,0,8.56,0,9-.49,9.05-9.16,0-17.72,0-35.44,0-53.16,0-8.77,4.07-14.57,11.5-16.83a15.86,15.86,0,0,1,20.32,13.26,14.66,14.66,0,0,1,.19,1.86q0,15,0,30Z"/><path class="cls-1" d="M66.34.18C76.2.18,86.06,0,95.92.23c7.9.15,13.46,4.52,15.56,11.65,1.89,6.46-.41,13.95-6.34,17.32a24.71,24.71,0,0,1-11.3,2.91c-17.35.3-34.7.12-52,.13-9.14,0-9.52.38-9.53,9.42,0,17.59,0,35.19,0,52.78,0,9-4.13,14.8-11.75,17-9.24,2.69-19.11-3.64-20-13.22C0,92.42.21,86.53.18,80.67.1,66.19.1,51.72,0,37.25-.13,17,16.91-.07,37.14,0c9.73,0,19.47,0,29.2,0Z"/><path class="cls-1" d="M.35,253.62c0-10.48-.3-21,.09-31.43C.72,214.78,6.94,208.75,14,208,22,207.05,29.2,211.54,31.4,219a26.87,26.87,0,0,1,.81,7.39c.07,17.22,0,34.44,0,51.66,0,9.25.36,9.58,9.75,9.59,17.6,0,35.2-.06,52.8,0,10.63.05,17.55,6.94,17.24,16.86a15.74,15.74,0,0,1-13.35,14.86,43.6,43.6,0,0,1-5.6.31c-18.6.07-37.19,0-55.79.17C17,320-.25,302.78,0,282.44c.12-9.6,0-19.21,0-28.82Z"/></svg>