<svg id="Layer_1" data-name="Layer 1" xmlns="http://www.w3.org/2000/svg" viewBox="0 0 190.41 332.64"><defs><style>.cls-1{fill:#fff;}</style></defs><path class="cls-1" d="M56.91,167.41c2.07,1.39,4.19,2.35,5.73,3.89Q122.37,230.79,182,290.35c7.35,7.33,10.3,15.79,7.16,25.77-5,15.9-24.5,21.67-37.59,11.31a53.29,53.29,0,0,1-4.45-4.19Q78.27,254.39,9.43,185.54c-12.56-12.56-12.58-25.8,0-38.37Q78.64,77.92,147.86,8.66c7.33-7.35,15.73-10.52,25.73-7.56C190.28,6,196,26.64,184.2,39.69c-5.95,6.61-12.48,12.69-18.78,19L61.87,162.07C60.59,163.34,59.41,164.71,56.91,167.41Z"/></svg>