<svg id="Layer_1" data-name="Layer 1" xmlns="http://www.w3.org/2000/svg" viewBox="0 0 321.43 322.11"><defs><style>.cls-1{fill:#fff;}</style></defs><path class="cls-1" d="M228.5,161.23c-.22,11-5.08,19.38-13.61,25.92Q139.31,245.05,63.79,303c-4.75,3.65-9.44,7.37-14.27,10.9-10.14,7.42-21.15,8.88-32.4,3.25S0,301.94,0,289.13Q0,160.75,0,32.37C0,19.73,5.79,10.22,17,4.66S39.44.4,49.41,8q83.16,63.69,166.18,127.57C224,142.11,228.42,150.65,228.5,161.23Z"/><path class="cls-1" d="M321.26,161.4c0,45.16-.27,90.33.17,135.5.14,14.23-10.54,26.12-25.22,25.16-4.35-.29-8.73,0-13.1-.07-13.47-.21-23.21-10.06-23.21-23.62q0-83.46,0-166.94,0-53.34,0-106.68C259.89,9.54,269.35.1,284.63,0c4.37,0,8.74,0,13.1,0,13.84.17,23.51,9.81,23.52,23.62Q321.31,92.53,321.26,161.4Z"/></svg>