<svg id="Layer_1" data-name="Layer 1" xmlns="http://www.w3.org/2000/svg" viewBox="0 0 343.58 279.87"><defs><style>.cls-1{fill:#fff;}</style></defs><path class="cls-1" d="M172,0Q243.09,0,314.2,0c14.27,0,25.28,8.42,28.49,21.76a29.24,29.24,0,0,1,.74,6.66q.1,23.4,0,46.79c0,5.91-3,10.28-7.78,12.06-8.08,3-16.25-2.91-16.31-12-.1-14.73,0-29.45,0-44.17,0-6.36-.59-6.94-7.12-6.94q-140.53,0-281.07,0c-6.32,0-6.95.61-6.95,6.74V248.73c0,6.19.65,6.85,6.85,6.85,24.95,0,49.9.06,74.85,0,5.91,0,10.56,1.84,13.05,7.44,3.5,7.87-2.3,16.52-11.3,16.71-8.6.18-17.21,0-25.82,0q-26,0-52,0C12.07,279.71.08,268,.06,250.29Q-.06,139.88.06,29.47C.08,11.73,12.05,0,29.76,0Q100.88,0,172,0Z"/><path class="cls-1" d="M251.46,127.91h62.47c17.59,0,29.32,11.49,29.52,29.13.14,12.84,0,25.69,0,38.53,0,17.83-.33,35.67.09,53.5.45,19-13.67,31-30.86,30.8-41.27-.38-82.55-.1-123.83-.14-14.63,0-25.78-9-28.65-23a28,28,0,0,1-.42-5.57q0-47.51,0-95c0-16.19,12.16-28.25,28.43-28.27Q219.85,127.88,251.46,127.91Zm0,127.67q30.87,0,61.74,0c5.23,0,6.11-.91,6.11-6.08V158.19c0-5.37-1-6.35-6.26-6.35H190.32c-5.48,0-6.6,1.11-6.6,6.51q0,45.27,0,90.55c0,5.79.88,6.68,6.75,6.68Z"/></svg>