<svg id="Layer_1" data-name="Layer 1" xmlns="http://www.w3.org/2000/svg" viewBox="0 0 320.86 285.55"><defs><style>.cls-1{fill:#fff;}</style></defs><path class="cls-1" d="M179.08,143.15q0,59.43,0,118.85c0,11.59-5.55,20.53-15.77,22.51-7.42,1.44-15.4,1.22-23,.33-6.64-.79-10.65-6.56-14.59-11.59-8.55-10.94-17.35-21.59-28.57-30-17.84-13.38-38.12-21.4-59.27-27.63C32,213.85,26,211.92,20.2,209.79c-13.46-4.9-19.91-15-20-29q-.34-37.87,0-75.73C.28,90.28,7.62,80.27,21.61,75.5c11.54-3.93,23.27-7.29,34.77-11.33,27.26-9.57,50.27-25.12,67.26-48.94,1.09-1.52,2.37-2.9,3.5-4.39C132.9,3.25,140.17-.91,150,.17c3.95.43,8.07-.19,11.92.6,10.61,2.2,17.1,11,17.12,22.78.06,27.37,0,54.74,0,82.11Z"/><path class="cls-1" d="M320.86,142.88c-.43,39.25-9.89,75.77-32.69,108.25-4.45,6.34-10.54,9.21-18.11,7.83-6.94-1.27-11.59-5.65-13.47-12.53a16.24,16.24,0,0,1,2.36-14.3c14-19.47,22.09-41.31,25.24-64.89,5.35-40.11-.93-78-24.28-111.78-8.22-11.89-2.32-25.27,8.28-28.33,7.5-2.17,14.85.49,19.89,7.53A169.4,169.4,0,0,1,312.79,86,204.19,204.19,0,0,1,320.86,142.88Z"/><path class="cls-1" d="M256.7,144A133.27,133.27,0,0,1,241.23,205c-5.13,9.64-14.91,13.15-23.88,8.56s-11.92-14.74-7.1-24.39q23-46,.15-92.09c-4.92-9.91-1.91-20.12,7.19-24.67,8.91-4.46,18.68-.83,23.85,8.85C251.21,99.55,256.73,121.94,256.7,144Z"/></svg>