<svg id="Layer_1" data-name="Layer 1" xmlns="http://www.w3.org/2000/svg" viewBox="0 0 420.22 419.92"><defs><style>.cls-1{fill:#231f20;}</style></defs><path d="M195.57,3.5h29.05c1.17.26,2.32.62,3.49.78C235,5.2,242,5.67,248.85,7,300,17.31,342,42.85,373.84,84.21c33.45,43.46,47.08,93,41.76,147.43-3.6,36.84-16.17,70.72-38.67,100.15C327.6,396.28,262,424,181.43,414.65c-37.75-4.39-71.52-19.66-101-43.76C40.74,338.45,16,297,6.72,246.48c-1.32-7.24-2.16-14.57-3.22-21.86V195.57c.6-4.64,1.13-9.29,1.8-13.92,5.83-39.9,21.51-75.42,47.92-105.95,32.16-37.16,72.43-60.37,120.92-69C181.25,5.41,188.43,4.55,195.57,3.5ZM55.7,312.81q39.6-57.15,106.82-76.07c-43-31.68-44.92-89.13-13.7-123.6,30.37-33.54,82.53-36.39,116.66-5.68,17.21,15.48,26.43,35.07,27.15,58.24.91,29.5-11.42,52.84-35,71,45.14,12.62,80.53,38.13,107,76.21,48-70.06,43-175.19-30.41-241.13-74.82-67.25-187.75-62-256.37,7.77C8.32,150.27,12.67,252.43,55.7,312.81Zm13.07,17.61c73.57,87.53,210,86.81,282.61,0-33.15-50-79.26-78.19-139.71-78.69C150,251.23,102.89,279.31,68.77,330.42ZM210,230.6a61.9,61.9,0,0,0,62.1-61.49c.32-34-27.72-62.25-61.83-62.32A61.91,61.91,0,1,0,210,230.6Z"/><path class="cls-1" d="M211.2,419.92a260.58,260.58,0,0,1-30.17-1.8c-37.4-4.34-72-19.32-102.82-44.52C37.8,340.56,12.59,298,3.28,247.11,2.36,242.08,1.66,237,1,232c-.31-2.3-.62-4.6-.95-6.89l0-.51,0-29.5c.19-1.46.37-2.92.55-4.38.39-3.14.79-6.39,1.26-9.6,6-41,22.39-77.28,48.73-107.72C83.33,35.56,124.7,12,173.53,3.24c4.92-.88,9.92-1.57,14.76-2.25,2.26-.31,4.52-.62,6.77-.95l.51,0H225l.39.09,1.18.29a18.66,18.66,0,0,0,2,.43c2.28.3,4.63.56,6.91.82,4.61.51,9.37,1,14,2,52.32,10.51,95.08,36.91,127.07,78.48,33.63,43.69,47.92,94.12,42.47,149.9-3.75,38.38-17,72.67-39.37,101.94C336,391.07,279.4,419.92,211.2,419.92ZM7,224.37q.48,3.34.93,6.71c.66,4.86,1.34,9.9,2.23,14.77,9,49.22,33.39,90.37,72.48,122.33,29.78,24.34,63.15,38.8,99.2,43,79.2,9.2,143.9-18.22,192.31-81.51,21.57-28.21,34.35-61.3,38-98.36,5.26-54-8.55-102.72-41.06-145-30.93-40.19-72.28-65.72-122.9-75.88-4.38-.88-9-1.39-13.44-1.89-2.32-.25-4.71-.52-7.07-.83a25.41,25.41,0,0,1-2.78-.59L224.22,7H195.83c-2.19.32-4.38.62-6.58.93-4.77.66-9.71,1.34-14.49,2.2C127.54,18.55,87.54,41.38,55.87,78c-25.46,29.42-41.31,64.46-47.1,104.16-.46,3.12-.86,6.34-1.24,9.44-.18,1.4-.35,2.8-.53,4.19ZM210.13,399.3c-56,0-108.44-24.27-144-66.63l-1.69-2,1.46-2.18c35.89-53.75,84.91-80.72,145.84-80.23,59.65.5,107.63,27.5,142.6,80.25l1.44,2.18-1.67,2c-35.35,42.27-87.73,66.55-143.7,66.62Zm-137-69.12c34.22,39.52,84,62.12,137,62.12h.23c53-.07,102.66-22.67,136.64-62.11-33.47-49.26-79-74.47-135.36-74.94C154.12,254.78,107.52,280,73.16,330.18ZM364.64,319.1l-2.89-4.16C335.37,277,301,252.5,256.69,240.1L250,238.22l5.52-4.26c23.5-18.13,34.5-40.42,33.64-68.15-.69-22.1-9.43-40.85-26-55.75-32.46-29.2-82.58-26.76-111.73,5.43a79.57,79.57,0,0,0-20,61.33c2.29,22.75,14.07,43,33.18,57.1l5.78,4.25-6.91,1.93c-43.75,12.26-79,37.39-104.9,74.7l-2.83,4.1-2.89-4.06c-22.41-31.44-34-73.34-31.78-115C22.8,167.3,33.62,119.55,75.35,77.12A189.33,189.33,0,0,1,398.41,190.47C403,235,392,279.18,367.51,314.92ZM265,235.25c40.76,12.78,74.2,36.81,99.55,71.52,47.39-73.62,33.79-172.65-32.65-232.36A181.76,181.76,0,0,0,80.34,82c-68,69.14-63.43,166.09-24.6,224.67,25.2-34.6,58.57-58.59,99.34-71.4a86.77,86.77,0,0,1-8.86-124.51c31.74-35,86.29-37.71,121.6-5.94,18,16.23,27.56,36.66,28.31,60.74C297,193.18,286.51,216.58,265,235.25Zm-54.78-1.15h-.25c-36-.13-65.29-29.41-65.31-65.26a65.71,65.71,0,0,1,65.46-65.55h.15a65.72,65.72,0,0,1,65.32,65.85C275.21,205,245.91,234.1,210.19,234.1Zm-.1-123.81A58.41,58.41,0,0,0,210,227.1h.22a58.61,58.61,0,0,0,58.37-58,58.72,58.72,0,0,0-58.34-58.79Z"/></svg>