<svg id="Layer_1" data-name="Layer 1" xmlns="http://www.w3.org/2000/svg" viewBox="0 0 371.49 381.84"><path d="M134.27,0c4.06.32,8.12.77,12.18.93,25.2,1,50.42,1.58,75.59,3.05,15,.88,29.86,3.19,44.8,4.71a10.14,10.14,0,0,0,5.6-1,36,36,0,0,1,17.43-4.64c15.78,0,31.57-.12,47.36,0,19.68.16,34.14,14.54,34.18,34.18q.16,63.95,0,127.88c-.05,19.47-13.61,33.52-33.39,34.08-16.64.47-33.31.24-50-.11-4.71-.1-9.39-1.73-14.69-2.77-1.24,2.21-2.6,5.44-4.66,8.13-4.67,6.07-9.71,11.85-14.57,17.77-5.74,7-12.14,13.56-17,21.09-18.71,28.71-32.49,59.9-44.7,91.8-.7,1.84-.48,4.12-.33,6.17.8,11.19.47,22.16-6.05,31.9-3.86,5.78-9.52,8.56-16.43,8.66-27.18.36-48.2-19.47-50.37-46.62-1.45-18.15,3-35.14,7.85-52.26,3.43-12.14,6.19-24.47,9.08-36.76.56-2.35.34-4.88.5-7.71-7.76,1.46-15,3-22.32,4.16-22.54,3.55-45.15,5.65-67.73.46-13.55-3.11-25.44-9-33.26-21.28-7.5-11.75-8.12-24.2-4-37.12a6.12,6.12,0,0,0-.78-6.08C-2.81,162-2.89,143,8.49,126.4a9.47,9.47,0,0,0,1.4-8.81c-4.84-17.87-1.05-34,11.31-47.73a15.65,15.65,0,0,0,4.49-11.92c-.14-19.65,9.44-34,26.11-43.77C66.34,5.64,82.41,2.26,99,.75c1.58-.14,3.14-.49,4.7-.75ZM256.05,28.89c-18.61-1.65-37.36-4.11-56.17-4.78-32.51-1.18-65-1.51-97.58-1.64a84.35,84.35,0,0,0-34,7.44c-15.92,6.93-23.18,17.89-20.43,33,1.43,7.87-.76,12.81-6.7,17.67-11.85,9.69-14.78,22.85-8.45,36.78,3,6.48,1.68,11.43-2.85,16.59-10.9,12.39-10.76,24.49-.05,37,5.35,6.25,5.64,8.81,1.83,16.43-7.16,14.32-2.25,27,12.79,32.66,9.55,3.6,19.59,4.26,29.66,4.49,20.65.49,40.75-3.44,60.77-7.82,11.34-2.47,20.58,3.37,22.41,14.76a64.2,64.2,0,0,1,.8,13.7c-.83,14.47-5,28.26-9.32,42-4.62,14.7-8.86,29.41-8,45.13.86,15.22,9.21,25.09,24,27.84,3.37.62,5-.63,5.14-3.79.23-4.69.14-9.4.28-14.1.11-3.8-.59-7.94.66-11.35,10.7-29.14,23.27-57.46,38.7-84.43,8.28-14.47,17.22-28.55,29.72-39.85,8.67-7.83,14-17.54,17.57-28.45a10.52,10.52,0,0,0,.28-4c-.32-4.2-1.12-8.38-1.13-12.57C256,117.62,256.05,73.65,256.05,28.89Zm21.83,72.41c0,21,0,42,0,63,0,9.2,4.28,13.38,13.48,13.39q22.55,0,45.1,0c8.81,0,13.33-4.48,13.34-13.26q0-63.15,0-126.32c0-8.74-4.67-13.33-13.36-13.34h-44c-10.52,0-14.59,4.1-14.59,14.71Q277.88,70.38,277.88,101.3Z"/></svg>