<svg id="Layer_1" data-name="Layer 1" xmlns="http://www.w3.org/2000/svg" viewBox="0 0 371.49 381.84"><path d="M237.23,381.84c-4.07-.32-8.12-.77-12.19-.93-25.2-1-50.42-1.57-75.59-3.05-15-.87-29.86-3.19-44.8-4.71a10.18,10.18,0,0,0-5.59,1,36,36,0,0,1-17.43,4.64c-15.79,0-31.58.12-47.36,0C14.59,378.62.13,364.24.08,344.6q-.16-63.94,0-127.88c0-19.47,13.6-33.52,33.38-34.08,16.64-.47,33.31-.24,50,.11,4.71.1,9.4,1.73,14.69,2.77,1.24-2.21,2.6-5.44,4.67-8.13,4.67-6.07,9.7-11.85,14.56-17.77,5.74-7,12.14-13.55,17-21.09,18.7-28.71,32.48-59.9,44.69-91.8.7-1.84.48-4.12.34-6.17-.8-11.18-.47-22.16,6-31.9C189.33,2.89,195,.1,201.9,0c27.17-.36,48.19,19.48,50.36,46.62,1.45,18.15-3,35.14-7.85,52.26-3.43,12.14-6.19,24.47-9.08,36.76-.55,2.35-.33,4.88-.49,7.71,7.76-1.45,15-3,22.31-4.16,22.55-3.55,45.15-5.64,67.73-.46,13.55,3.11,25.45,9,33.27,21.28,7.5,11.75,8.12,24.2,4,37.12a6.12,6.12,0,0,0,.79,6.08c11.41,16.64,11.5,35.59.11,52.24a9.47,9.47,0,0,0-1.4,8.8c4.84,17.88,1,34-11.31,47.73a15.68,15.68,0,0,0-4.49,11.92c.14,19.65-9.44,34-26.11,43.77-14.54,8.53-30.61,11.91-47.18,13.42-1.58.14-3.13.5-4.7.75ZM115.44,353c18.61,1.65,37.36,4.11,56.18,4.79,32.5,1.17,65,1.5,97.58,1.63a84.34,84.34,0,0,0,33.95-7.44c15.92-6.93,23.18-17.89,20.43-33-1.43-7.87.76-12.81,6.7-17.67,11.85-9.69,14.78-22.85,8.45-36.78-3-6.48-1.68-11.43,2.85-16.59,10.9-12.39,10.77-24.49.05-37-5.35-6.26-5.63-8.82-1.83-16.43,7.16-14.33,2.25-27-12.79-32.67-9.55-3.59-19.59-4.26-29.66-4.49-20.65-.49-40.74,3.44-60.77,7.82-11.34,2.48-20.57-3.37-22.41-14.76a63.49,63.49,0,0,1-.79-13.69c.83-14.48,5-28.27,9.31-42,4.62-14.7,8.86-29.41,8-45.13-.86-15.22-9.22-25.08-24.06-27.83-3.36-.63-5,.63-5.14,3.78-.22,4.69-.14,9.4-.28,14.1-.1,3.8.59,7.94-.66,11.35-10.7,29.14-23.27,57.46-38.7,84.43-8.27,14.47-17.21,28.55-29.72,39.85-8.66,7.84-14,17.55-17.57,28.45a10.76,10.76,0,0,0-.28,4c.32,4.19,1.12,8.37,1.13,12.56C115.48,264.22,115.44,308.19,115.44,353ZM93.61,280.54c0-21,0-42,0-63,0-9.2-4.27-13.38-13.48-13.39q-22.54,0-45.09,0c-8.82,0-13.34,4.48-13.35,13.26q0,63.17,0,126.32c0,8.74,4.68,13.33,13.37,13.34H79c10.53,0,14.59-4.1,14.6-14.71Q93.63,311.46,93.61,280.54Z"/></svg>