<svg id="Layer_1" data-name="Layer 1" xmlns="http://www.w3.org/2000/svg" viewBox="0 0 398.73 405.25"><path d="M242.71,405.25H156.42c-4.35-1.69-7.12-4.47-7.82-9.42q-3.42-24.24-7.35-48.41a7.3,7.3,0,0,0-3.07-4.48q-15-9.12-30.31-17.74a5.6,5.6,0,0,0-4.24-.19c-8,3-15.89,6.33-23.85,9.44-8.82,3.45-17.59,7-26.55,10.07-5.13,1.74-9-.27-11.62-4.85q-19-33.27-38-66.56c-4-7.09-3.19-11.37,3.14-16.47Q25.64,241.36,44.5,226c1-.84,2.18-2.59,2-3.65-2.3-11.44-1.67-22.84.27-34.2.59-3.44-.25-5.47-3.08-7.57-12.61-9.34-25-18.91-37.51-28.44-6.85-5.23-7.84-10.24-3.62-17.62Q20.65,102.76,38.76,71c4.92-8.61,10.54-10.5,19.81-6.63C72.78,70.31,87,76.32,101.23,82.1a6.9,6.9,0,0,0,5.29-.38c10.28-5.84,20.44-11.89,30.55-18a5.21,5.21,0,0,0,2-3.35c2.62-16.78,5-33.59,7.66-50.36,1-6.72,5.05-10,11.95-10Q197.84,0,237,0c7.09,0,9.94,3,9.86,10.05a12,12,0,0,0,.31,1.95c2.4,15.61,4.94,31.2,7.1,46.85.44,3.18,1.7,4.72,4.38,6.21,9.31,5.17,18.55,10.5,27.59,16.13,2.55,1.58,4.38,1.88,7.15.73,15.08-6.21,30.25-12.23,45.42-18.23,7.95-3.14,12.19-1.56,16.38,5.78q18.54,32.42,37.08,64.83c4,6.94,3.17,11.1-3.05,16.15-11.57,9.39-23.05,18.9-34.82,28-4,3.08-6.84,5.85-4.32,11.2a7.75,7.75,0,0,1,.27,3.52c-.46,8.8-.88,17.6-1.52,26.38-.21,2.85.23,4.79,2.87,6.58,14.39,9.79,28.57,19.87,42.93,29.7,3.12,2.13,4.59,4.8,3.92,8.33a24.1,24.1,0,0,1-2.62,7.32q-18.61,32.82-37.42,65.54c-4.67,8.16-8.23,9.45-16.82,6-15-6-30-12-45.12-17.92a6.12,6.12,0,0,0-4.61,0q-15.28,8.63-30.31,17.73a6.84,6.84,0,0,0-3,4.08c-2.54,15.32-5.15,30.65-7,46.06C250.87,399.24,248.17,403,242.71,405.25Zm-116-201.59c0,38.63,32.49,71.06,71.11,71.09,38.85,0,71.34-32.54,71.17-71.34s-32.9-71.29-71.23-71C159,132.75,126.66,165.16,126.7,203.66Z"/></svg>