<svg id="Layer_1" data-name="Layer 1" xmlns="http://www.w3.org/2000/svg" viewBox="0 0 352.81 352.74"><path d="M176.16,352.73q-55.6,0-111.22,0C28.16,352.69,0,324.5,0,287.7Q0,176.25,0,64.8C0,28.36,28.28,0,64.67,0Q176.39,0,288.12,0c36.43,0,64.66,28.28,64.67,64.76q0,111.71,0,223.4c0,36.13-28.32,64.49-64.41,64.54Q232.28,352.79,176.16,352.73ZM136.58,192.39c-18.35,0-36.7-.06-55.05,0-10.12,0-17.45,6.94-17.38,16.12.06,9,7.31,15.91,17.08,15.93q55.05.12,110.09-.08a20.83,20.83,0,0,0,9.45-2.57,15,15,0,0,0,7.07-17.15c-2.07-7.6-7.94-12.2-16.22-12.24C173.27,192.32,154.92,192.39,136.58,192.39Zm80.1,56.12c-18.18,0-36.36,0-54.54,0-10.49,0-17.93,6.88-17.8,16.21.12,9.15,7.47,15.85,17.66,15.86q54.56.07,109.09-.08a22,22,0,0,0,9.54-2.33,15.27,15.27,0,0,0,7.52-17c-2-7.85-7.94-12.6-16.42-12.64C253.38,248.45,235,248.51,216.68,248.51Zm39.9-24c5.17,0,10.33.11,15.49,0,9.4-.24,16.49-7.11,16.58-15.89.1-8.93-7.17-16-16.82-16.15q-15.24-.19-30.48,0c-9.71.13-16.9,7.14-16.82,16.13s7.31,15.76,17.06,15.93C246.59,224.56,251.59,224.49,256.58,224.49Zm-159.86,24c-5.33,0-10.66-.1-16,0-9.43.23-16.47,7.05-16.58,15.87s7,16,16.31,16.14q15.74.31,31.48,0c9.32-.18,16.41-7.38,16.33-16.11s-7.19-15.67-16.56-15.91C106.71,248.41,101.72,248.51,96.72,248.51Z"/></svg>