<svg id="Layer_1" data-name="Layer 1" xmlns="http://www.w3.org/2000/svg" viewBox="0 0 374.65 369.64"><path d="M187.33.07c45.66,0,91.33-.21,137,.09,21.29.14,36.73,10.4,46,29.58a45,45,0,0,1,4.27,19.94c0,59.15.13,118.3-.07,177.45-.09,28.18-22.21,49.78-50.39,49.79q-136.81,0-273.61,0C22.36,276.91.21,255.26.13,227.14q-.27-88.53,0-177.08C.19,21.71,22.22.12,50.71.09Q119,0,187.33.07ZM187,258.75q67,0,134,0c2.24,0,4.49-.07,6.72-.24a31.34,31.34,0,0,0,28.8-30.89q.13-89.09,0-178.17a30.27,30.27,0,0,0-8.7-21.27c-7.08-7.5-16-10-26-10q-134.34.11-268.7.05c-2,0-4,.09-6,.24a31.36,31.36,0,0,0-29,31.08c-.08,59.27-.14,118.54.16,177.8a34,34,0,0,0,4.37,15.54c6.2,11.29,16.56,15.88,29.28,15.86Q119.49,258.67,187,258.75Z"/><path d="M112.93,337.09c-6.5,20.5-19.93,32.24-41.56,32.54-15.56.22-33.68-9.48-40.18-32.58-7.36,0-14.83.13-22.29-.05-5.79-.13-9.37-4.54-8.72-10.23.52-4.48,4.35-7.67,9.51-7.72,7.1-.07,14.21,0,21.38,0,7.3-21.76,21.77-34,45.21-32.06,19.29,1.63,30.82,13.61,36.57,32h4.61q122.58,0,245.16,0a19.92,19.92,0,0,1,5.88.63c4.38,1.35,6.62,5.32,6,9.95a8.66,8.66,0,0,1-8.21,7.36c-1.61.12-3.24.09-4.86.09H112.93Zm-17.52-8.86a23.37,23.37,0,1,0-23.59,23.32A23.22,23.22,0,0,0,95.41,328.23Z"/><path d="M116.42,138.51q0-33.69,0-67.38c0-7.29,4.46-11.58,10.81-10.48a13.4,13.4,0,0,1,3.8,1.44q66,33.68,132.06,67.36c3.8,1.93,6.65,4.34,6.66,9s-2.83,7.11-6.62,9.05q-66,33.66-132.06,67.38c-8,4.09-14.62,0-14.64-9Q116.37,172.2,116.42,138.51ZM135,84.36V192.63l106-54.14Z"/></svg>